 <svg xmlns="http://www.w3.org/2000/svg" viewBox="0 0 64 64" width="50" height="50">
            <path fill="#268484" d="M39,14V29a2,2,0,0,1-2,2H22.781a1,1,0,0,0-.656.245l-3.469,3.013A1,1,0,0,1,17,33.5V32a1,1,0,0,0-1-1H14a2,2,0,0,1-2-2V14a2,2,0,0,1,2-2H37A2,2,0,0,1,39,14Z"/>
            <path fill="#623905" d="M18.006,35.507a2.02,2.02,0,0,1-.836-.184A1.979,1.979,0,0,1,16,33.5V32H14a3,3,0,0,1-3-3V14a3,3,0,0,1,3-3H37a3,3,0,0,1,3,3V29a3,3,0,0,1-3,3H22.781l-3.469,3.013A1.988,1.988,0,0,1,18.006,35.507Z"/>
            <rect fill="#2c9ea5" height="21" rx="2" transform="translate(47 -4) rotate(90)" width="13" x="19" y="11"/>
            <path fill="#f6e3a6" d="M30.919,19.609a2.569,2.569,0,0,1-.766,1.844L28.308,23.3l-1.9,1.9a1.3,1.3,0,0,1-1.846,0l-1.9-1.9-1.743-1.744a2.708,2.708,0,0,1-.387-3.454,2.612,2.612,0,0,1,3.975-.336l.975.974.861-.861a2.737,2.737,0,0,1,3.3-.5A2.573,2.573,0,0,1,30.919,19.609Z"/>
            <path fill="#623905" d="M25.489,26.583a2.289,2.289,0,0,1-1.632-.677l-3.638-3.644a3.718,3.718,0,0,1-.491-4.746,3.61,3.61,0,0,1,5.493-.459l.268.267.154-.154a3.709,3.709,0,0,1,4.52-.652,3.6,3.6,0,0,1,.691,5.649L27.12,25.906a2.282,2.282,0,0,1-1.63.677Z"/>
            <path fill="#d26274" d="M25,31V46a2,2,0,0,0,2,2H41.219a1,1,0,0,1,.656.245l3.469,3.013A1,1,0,0,0,47,50.5V49a1,1,0,0,1,1-1h2a2,2,0,0,0,2-2V31a2,2,0,0,0-2-2H27A2,2,0,0,0,25,31Z"/>
            <path fill="#623905" d="M45.994,52.507a1.988,1.988,0,0,1-1.306-.494L41.219,49H27a3,3,0,0,1-3-3V31a3,3,0,0,1,3-3H50a3,3,0,0,1,3,3V46a3,3,0,0,1-3,3H48v1.5a1.979,1.979,0,0,1-1.17,1.82A2.02,2.02,0,0,1,45.994,52.507Z"/>
            <rect fill="#e29e9a" height="21" rx="2" transform="translate(77 0) rotate(90)" width="13" x="32" y="28"/>
            <path fill="#f6e3a6" d="M33.081,36.609a2.569,2.569,0,0,0,.766,1.844L35.692,40.3l1.9,1.9a1.3,1.3,0,0,0,1.846,0l1.9-1.9,1.743-1.744a2.708,2.708,0,0,0,.387-3.454,2.612,2.612,0,0,0-3.975-.336l-.975.974-.861-.861a2.737,2.737,0,0,0-3.3-.5A2.573,2.573,0,0,0,33.081,36.609Z"/>
            <path fill="#623905" d="M38.511,43.583h0a2.284,2.284,0,0,1-1.63-.677L33.14,39.16a3.6,3.6,0,0,1,.7-5.642,3.709,3.709,0,0,1,4.52.652l.154.154.268-.267a3.61,3.61,0,0,1,5.493.459,3.717,3.717,0,0,1-.491,4.746l-3.638,3.644A2.29,2.29,0,0,1,38.511,43.583Z"/>
            </svg>