    <svg xmlns="http://www.w3.org/2000/svg" viewBox="0 0 64 64" width="50" height="45">
            <circle fill="#d8d8fc" cx="26" cy="46" r="3.648"></circle>
            <path fill="#d8d8fc" d="M7,59H45V5H7Z"></path>
            <rect fill="#fdbf00" height="34" width="6" x="51" y="17"></rect>
            <path fill="#f03800" d="M51,56a3,3,0,0,0,6,0V53H51Z"></path>
            <polygon fill="#ffcebf" points="51.387 15 56.613 15 54 7.162 51.387 15"></polygon>
            <rect fill="#4bb9ec" height="10" width="26" x="13" y="9"></rect>
            <path fill="" d="M33.038,44.369a7.239,7.239,0,0,0-.908-2.192,1,1,0,0,1,.007-1.07l.653-1.015a9.2,9.2,0,0,0-.882-.882l-1.015.653a1,1,0,0,1-1.07.007,7.239,7.239,0,0,0-2.192-.908,1,1,0,0,1-.751-.762l-.256-1.178h0a8.95,8.95,0,0,0-1.247,0L25.12,38.2a1,1,0,0,1-.751.762,7.24,7.24,0,0,0-2.192.908,1,1,0,0,1-1.07-.007l-1.015-.653a9.184,9.184,0,0,0-.882.882l.653,1.015a1,1,0,0,1,.007,1.07,7.241,7.241,0,0,0-.908,2.192,1,1,0,0,1-.762.751l-1.178.257a8.95,8.95,0,0,0,0,1.247l1.178.256a1,1,0,0,1,.762.751,7.242,7.242,0,0,0,.908,2.192,1,1,0,0,1-.007,1.07l-.653,1.015a9.17,9.17,0,0,0,.882.882l1.015-.653a1,1,0,0,1,1.07-.007,7.242,7.242,0,0,0,2.192.908,1,1,0,0,1,.751.762l.257,1.178a8.95,8.95,0,0,0,1.247,0L26.88,53.8a1,1,0,0,1,.751-.762,7.241,7.241,0,0,0,2.192-.908,1,1,0,0,1,1.07.007l1.015.653a9.184,9.184,0,0,0,.882-.882l-.653-1.015a1,1,0,0,1-.007-1.07,7.24,7.24,0,0,0,.908-2.192,1,1,0,0,1,.762-.751l1.178-.257a8.95,8.95,0,0,0,0-1.247L33.8,45.12A1,1,0,0,1,33.038,44.369ZM26,51.648A5.648,5.648,0,1,1,31.648,46,5.651,5.651,0,0,1,26,51.648Z"></path>
            <path fill="#000000" d="M12,25H40a1,1,0,0,0,0-2H12a1,1,0,0,0,0,2Z"></path>
            <path fill="#000000" d="M12,29H40a1,1,0,0,0,0-2H12a1,1,0,0,0,0,2Z"></path>
            <path fill="#000000" d="M12,33H40a1,1,0,0,0,0-2H12a1,1,0,0,0,0,2Z"></path>
            </svg>