<?xml version="1.0" encoding="UTF-8"?>
<svg version="1.1" xmlns="http://www.w3.org/2000/svg" width="300" height="300">
<path d="M0 0 C1.47683969 1.12187997 2.93575209 2.26778397 4.375 3.4375 C5.20773438 4.06398438 6.04046875 4.69046875 6.8984375 5.3359375 C16.57020755 13.5432124 23.38596743 27.13125664 24.59619141 39.74243164 C25.42057169 56.94391561 22.26501916 72.0311471 11.125 85.6875 C2.88782806 94.54019687 -8.06212544 100.31735924 -19.625 103.4375 C-18.51125 103.64503906 -17.3975 103.85257812 -16.25 104.06640625 C9.43862266 109.13324606 29.32157995 121.58260652 46.55859375 141.171875 C48.32043163 142.68352029 48.32043163 142.68352029 50.66015625 142.265625 C52.00400391 141.85570312 52.00400391 141.85570312 53.375 141.4375 C54.48875 141.128125 55.6025 140.81875 56.75 140.5 C57.94625 140.149375 59.1425 139.79875 60.375 139.4375 C81.74711114 133.17326053 102.39284548 135.91297517 121.87109375 146.421875 C126.01141381 148.75142197 129.76095128 151.35442527 133.375 154.4375 C133.93960937 154.8603125 134.50421875 155.283125 135.0859375 155.71875 C148.51491989 166.1702657 158.26663369 184.67096789 160.375 201.4375 C162.15581546 224.26856741 158.42443834 245.0700048 144 263.375 C130.98723731 278.18339093 113.03671842 290.24636085 92.75048828 291.61450195 C69.48223744 292.12279882 50.57089158 288.98534083 32.375 273.4375 C31.364375 272.674375 30.35375 271.91125 29.3125 271.125 C23.93870959 266.20855346 19.71863291 260.2603887 15.375 254.4375 C14.8173999 254.60878418 14.2597998 254.78006836 13.68530273 254.95654297 C-22.89519036 266.08663239 -60.18948939 265.40758194 -94.625 247.4375 C-105.73751703 241.41789907 -115.35837543 233.99303205 -124.625 225.4375 C-125.33269531 224.78910156 -126.04039063 224.14070312 -126.76953125 223.47265625 C-128.46197908 221.84897605 -130.04774884 220.17286191 -131.625 218.4375 C-132.34816406 217.69242188 -133.07132813 216.94734375 -133.81640625 216.1796875 C-134.92822266 214.94605469 -134.92822266 214.94605469 -136.0625 213.6875 C-136.74183594 212.95015625 -137.42117187 212.2128125 -138.12109375 211.453125 C-141.48621275 204.70540587 -139.92780289 197.0052243 -137.69604492 190.0703125 C-137.4044751 189.24273437 -137.11290527 188.41515625 -136.8125 187.5625 C-136.50481689 186.67046875 -136.19713379 185.7784375 -135.88012695 184.859375 C-130.28221882 169.32609775 -122.44238251 154.9268118 -111.625 142.4375 C-111.18687988 141.92396973 -110.74875977 141.41043945 -110.29736328 140.88134766 C-92.42729441 120.05116655 -71.07418801 108.94100301 -44.625 103.4375 C-45.84123047 103.01791016 -45.84123047 103.01791016 -47.08203125 102.58984375 C-64.25235367 96.37334751 -75.7377997 87.36162234 -83.8828125 70.89453125 C-90.34653989 55.8364404 -90.12781862 40.03225795 -84.21875 24.81640625 C-76.99994832 9.27214697 -65.80753047 -0.7230652 -49.9140625 -6.8359375 C-33.57842652 -12.02096872 -14.10141454 -9.59392426 0 0 Z " fill="#97AEB4" transform="translate(139.625,8.5625)"/>
<path d="M0 0 C1.8928099 1.38587237 3.68076643 2.83741331 5.46484375 4.359375 C6.02945313 4.7821875 6.5940625 5.205 7.17578125 5.640625 C20.60476364 16.0921407 30.35647744 34.59284289 32.46484375 51.359375 C34.24565921 74.19044241 30.51428209 94.9918798 16.08984375 113.296875 C3.07708106 128.10526593 -14.87343783 140.16823585 -35.15966797 141.53637695 C-58.42791881 142.04467382 -77.33926467 138.90721583 -95.53515625 123.359375 C-97.05109375 122.2146875 -97.05109375 122.2146875 -98.59765625 121.046875 C-113.39547766 107.50844265 -121.48559926 86.99081648 -122.73828125 67.140625 C-123.05903266 44.68802635 -115.03229744 24.59889421 -99.53515625 8.359375 C-88.16704485 -1.96029398 -75.53848373 -9.15670626 -60.53515625 -12.640625 C-59.39820313 -12.92873047 -59.39820313 -12.92873047 -58.23828125 -13.22265625 C-37.24476038 -16.46876425 -17.64945369 -11.42183444 0 0 Z " fill="#FE3F5C" transform="translate(267.53515625,158.640625)"/>
<path d="M0 0 C1.47683969 1.12187997 2.93575209 2.26778397 4.375 3.4375 C5.20773438 4.06398438 6.04046875 4.69046875 6.8984375 5.3359375 C16.57020755 13.5432124 23.38596743 27.13125664 24.59619141 39.74243164 C25.42057169 56.94391561 22.26501916 72.0311471 11.125 85.6875 C1.66939775 95.84967472 -11.81130068 103.16639325 -25.76171875 103.7734375 C-44.89880774 104.08497151 -58.98472388 100.31649069 -73.30078125 86.921875 C-83.81212693 75.6862181 -89.30341017 60.49284087 -88.8671875 45.15234375 C-87.39900888 28.69453498 -80.97100365 14.55612317 -68.625 3.4375 C-49.03106544 -11.56585561 -20.82133992 -14.1658383 0 0 Z " fill="#F7D1B2" transform="translate(139.625,8.5625)"/>
<path d="M0 0 C1.15757812 -0.00257813 2.31515625 -0.00515625 3.5078125 -0.0078125 C4.72210938 -0.00007812 5.93640625 0.00765625 7.1875 0.015625 C8.40179688 0.00789062 9.61609375 0.00015625 10.8671875 -0.0078125 C12.60355469 -0.00394531 12.60355469 -0.00394531 14.375 0 C15.44105469 0.00225586 16.50710937 0.00451172 17.60546875 0.00683594 C20.1875 0.265625 20.1875 0.265625 22.1875 2.265625 C21.9375 5.328125 21.9375 5.328125 21.1875 8.265625 C15.51495403 11.10189798 8.5295992 9.265625 2.1875 9.265625 C2.1875 34.015625 2.1875 58.765625 2.1875 84.265625 C7.4675 84.265625 12.7475 84.265625 18.1875 84.265625 C19.5075 85.255625 20.8275 86.245625 22.1875 87.265625 C21.4375 92.015625 21.4375 92.015625 19.1875 94.265625 C15.22701178 94.72218297 11.2337619 94.58964542 7.25 94.578125 C5.58420898 94.60229492 5.58420898 94.60229492 3.88476562 94.62695312 C2.82064453 94.62759766 1.75652344 94.62824219 0.66015625 94.62890625 C-0.31687256 94.63188721 -1.29390137 94.63486816 -2.30053711 94.63793945 C-5.28277901 94.19592187 -5.96265192 93.58013094 -7.8125 91.265625 C-8.10355939 88.36757548 -8.21188885 85.68527065 -8.18481445 82.78686523 C-8.18846512 81.92157196 -8.19211578 81.05627869 -8.19587708 80.1647644 C-8.20399142 77.30105033 -8.19036625 74.43790046 -8.17578125 71.57421875 C-8.1752628 69.58789572 -8.17577992 67.60157216 -8.17729187 65.61524963 C-8.17720211 61.45151108 -8.16676404 57.287966 -8.14868164 53.12426758 C-8.12597964 47.77840534 -8.12545263 42.43282556 -8.13219929 37.08692837 C-8.13553515 32.98551407 -8.12891665 28.88416456 -8.11907005 24.78276253 C-8.11521226 22.81112062 -8.11407222 20.83947151 -8.1156559 18.86782646 C-8.11602536 16.11674042 -8.10344039 13.36602133 -8.0871582 10.61499023 C-8.08963562 9.79467819 -8.09211304 8.97436615 -8.09466553 8.12919617 C-8.02903141 1.20640597 -6.80207087 0.01439374 0 0 Z " fill="#FFF3F5" transform="translate(197.8125,175.734375)"/>
<path d="M0 0 C4.11954433 0.41220219 5.30793551 1.62505817 8.20849609 4.52416992 C9.09150391 5.40395508 9.97451172 6.28374023 10.88427734 7.19018555 C11.78791016 8.1215332 12.69154297 9.05288086 13.62255859 10.01245117 C14.54939453 10.92446289 15.47623047 11.83647461 16.43115234 12.77612305 C23.06968105 19.49775558 23.06968105 19.49775558 23.78173828 22.80908203 C22.70068565 27.90060275 18.19672508 31.18520257 14.60498047 34.72924805 C13.12672556 36.19581714 11.68330859 37.69150281 10.23974609 39.19213867 C9.31162109 40.12026367 8.38349609 41.04838867 7.42724609 42.00463867 C6.57888184 42.85783691 5.73051758 43.71103516 4.85644531 44.59008789 C2.24755859 46.32495117 2.24755859 46.32495117 -1.07617188 46.0949707 C-1.95934082 45.84086426 -2.84250977 45.58675781 -3.75244141 45.32495117 C-4.59228516 42.69213867 -4.59228516 42.69213867 -4.75244141 39.32495117 C-2.97728523 37.02415654 -1.44659871 35.34704884 0.68505859 33.44995117 C1.21421875 32.95237305 1.74337891 32.45479492 2.28857422 31.94213867 C3.59301552 30.71995944 4.91836406 29.5201629 6.24755859 28.32495117 C5.35219894 28.31282089 5.35219894 28.31282089 4.43875122 28.30044556 C-1.75785111 28.21457921 -7.95412688 28.11508424 -14.15039062 28.00756836 C-16.46478809 27.96921716 -18.77924642 27.93437528 -21.09375 27.90307617 C-24.41509805 27.85755877 -27.73602481 27.79954275 -31.05712891 27.73901367 C-32.09674774 27.72746246 -33.13636658 27.71591125 -34.20748901 27.70401001 C-35.16833405 27.68414032 -36.12917908 27.66427063 -37.11914062 27.64379883 C-37.96741425 27.63047516 -38.81568787 27.61715149 -39.68966675 27.60342407 C-41.75244141 27.32495117 -41.75244141 27.32495117 -43.75244141 25.32495117 C-44.00244141 22.82495117 -44.00244141 22.82495117 -43.75244141 20.32495117 C-41.28025319 17.85276296 -40.52681265 18.05962716 -37.11914062 18.00610352 C-36.15829559 17.98623383 -35.19745056 17.96636414 -34.20748901 17.94589233 C-33.16787018 17.93434113 -32.12825134 17.92278992 -31.05712891 17.91088867 C-29.46325851 17.88183945 -29.46325851 17.88183945 -27.83718872 17.85220337 C-24.43402198 17.79229033 -21.03082162 17.74597519 -17.62744141 17.69995117 C-15.32404101 17.6617822 -13.02065505 17.62273112 -10.71728516 17.58276367 C-5.06246513 17.4865793 0.59244142 17.40156636 6.24755859 17.32495117 C5.16474609 16.34655273 5.16474609 16.34655273 4.06005859 15.34838867 C3.13193359 14.4744043 2.20380859 13.60041992 1.24755859 12.69995117 C-0.14462891 11.41217773 -0.14462891 11.41217773 -1.56494141 10.09838867 C-3.75244141 7.32495117 -3.75244141 7.32495117 -4.12744141 4.05151367 C-3.62914089 0.42845366 -3.62914089 0.42845366 0 0 Z " fill="#FFFDFD" transform="translate(252.75244140625,199.675048828125)"/>
</svg>
